<svg width="68" height="60" viewBox="0 0 68 60" fill="none" xmlns="http://www.w3.org/2000/svg">
<g clip-path="url(#clip0)">
<path fill-rule="evenodd" clip-rule="evenodd" d="M32.7628 58.7393C32.3681 59.1383 31.8992 59.4549 31.383 59.6709C30.8667 59.8869 30.3133 59.9981 29.7543 59.9981C29.1954 59.9981 28.642 59.8869 28.1257 59.6709C27.6095 59.4549 27.1406 59.1383 26.7458 58.7393L1.25008 33.0299C0.854362 32.6318 0.540405 32.159 0.326183 31.6384C0.111965 31.1179 0.00170135 30.5598 0.00170135 29.9962C0.00170135 29.4326 0.111965 28.8745 0.326183 28.3539C0.540405 27.8333 0.854362 27.3605 1.25008 26.9625L26.7458 1.25307C27.5437 0.448486 28.6259 -0.00352478 29.7543 -0.00352478C30.8828 -0.00352478 31.9649 0.448486 32.7628 1.25307C33.5607 2.05766 34.009 3.14893 34.009 4.28679C34.009 5.42465 33.5607 6.5159 32.7628 7.32049L10.2699 29.9981L32.7628 52.6757C33.1586 53.0737 33.4725 53.5465 33.6867 54.0671C33.901 54.5877 34.0112 55.1457 34.0112 55.7094C34.0112 56.273 33.901 56.831 33.6867 57.3516C33.4725 57.8722 33.1586 58.345 32.7628 58.7431V58.7393Z" fill="#C9C9C9"/>
<path fill-rule="evenodd" clip-rule="evenodd" d="M68 29.9981C68 31.1345 67.5523 32.2244 66.7554 33.028C65.9585 33.8316 64.8777 34.283 63.7507 34.283L8.50991 34.283C7.38293 34.283 6.3021 33.8316 5.5052 33.028C4.70831 32.2244 4.26062 31.1345 4.26062 29.9981C4.26062 28.8617 4.70831 27.7718 5.5052 26.9682C6.3021 26.1647 7.38293 25.7132 8.50991 25.7132L63.7507 25.7132C64.8777 25.7132 65.9585 26.1647 66.7554 26.9682C67.5523 27.7718 68 28.8617 68 29.9981Z" fill="#C9C9C9"/>
</g>
<defs>
<clipPath id="clip0">
<rect width="68" height="60" fill="white" transform="translate(68 60) rotate(180)"/>
</clipPath>
</defs>
</svg>
