<svg width="49" height="43" viewBox="0 0 49 43" fill="none" xmlns="http://www.w3.org/2000/svg">
<g clip-path="url(#clip0)">
<path fill-rule="evenodd" clip-rule="evenodd" d="M25.3913 0.903397C25.6757 0.61742 26.0136 0.390526 26.3856 0.235716C26.7576 0.0809056 27.1564 0.0012207 27.5592 0.0012207C27.9619 0.0012207 28.3607 0.0809056 28.7327 0.235716C29.1047 0.390526 29.4426 0.61742 29.7271 0.903397L48.099 19.3285C48.3841 19.6137 48.6104 19.9526 48.7647 20.3257C48.9191 20.6987 48.9986 21.0987 48.9986 21.5026C48.9986 21.9065 48.9191 22.3065 48.7647 22.6796C48.6104 23.0526 48.3841 23.3915 48.099 23.6768L29.7271 42.1018C29.1521 42.6785 28.3723 43.0024 27.5592 43.0024C26.746 43.0024 25.9662 42.6785 25.3913 42.1018C24.8163 41.5252 24.4933 40.7431 24.4933 39.9277C24.4933 39.1122 24.8163 38.3301 25.3913 37.7535L41.5994 21.5012L25.3913 5.24898C25.1061 4.96372 24.8799 4.62485 24.7255 4.25178C24.5712 3.8787 24.4917 3.47875 24.4917 3.07482C24.4917 2.6709 24.5712 2.27095 24.7255 1.89787C24.8799 1.52479 25.1061 1.18592 25.3913 0.900666V0.903397Z" fill="#C9C9C9"/>
<path fill-rule="evenodd" clip-rule="evenodd" d="M0 21.5013C0 20.6868 0.322602 19.9057 0.896836 19.3298C1.47107 18.754 2.2499 18.4304 3.06199 18.4304H42.8679C43.68 18.4304 44.4588 18.754 45.033 19.3298C45.6073 19.9057 45.9298 20.6868 45.9298 21.5013C45.9298 22.3157 45.6073 23.0968 45.033 23.6727C44.4588 24.2486 43.68 24.5721 42.8679 24.5721H3.06199C2.2499 24.5721 1.47107 24.2486 0.896836 23.6727C0.322602 23.0968 0 22.3157 0 21.5013Z" fill="#C9C9C9"/>
</g>
<defs>
<clipPath id="clip0">
<rect width="49" height="43" fill="white"/>
</clipPath>
</defs>
</svg>
