<?xml version="1.0" encoding="utf-8"?>
<!-- Generator: Adobe Illustrator 25.2.1, SVG Export Plug-In . SVG Version: 6.00 Build 0)  -->
<svg version="1.1" id="Layer_1" xmlns="http://www.w3.org/2000/svg" xmlns:xlink="http://www.w3.org/1999/xlink" x="0px" y="0px"
	 viewBox="0 0 1552 595" style="enable-background:new 0 0 1552 595;" xml:space="preserve">
<style type="text/css">
	.st0{display:none;fill:#FFFFFF;}
	.st1{fill:#FFFFFF;}
</style>
<g>
	<g>
		<path class="st0" d="M1552,157c0,92.3,0,184.7,0,277c-69.2,0-138.5,0-207.6,0c0-46.4,0-92.1,0-138.2c54.6,0,108.9,0,163.3,0
			c0-19.1,0-37.8,0-57c-54.7,0-109.1,0-163.8,0c0-13.8,0-27.1,0-40.5c-19.1,0-37.8,0-56.6,0c0,97.7,0,195,0,292.7
			c88.4,0,176.6,0,264.7,0c0,36.7,0,73.3,0,110c-517.3,0-1034.7,0-1552,0c0-2,0-4,0-6c360.7,0,721.3,0,1082,0
			c-12.2-7.5-24.5-14.3-36.9-21c-20.2-10.9-40.3-22-60.6-32.6c-3.7-2-8.3-3.2-12.5-3.2C647.9,538,324,538,0,538
			C0,377.3,0,216.7,0,56c171,0,342,0,513.7,0c-1-0.8-1.2-1.2-1.6-1.4c-20.6-11.2-41.3-22.3-61.9-33.6c-12.8-7-25.5-14-38.2-21
			c28.3,0,56.7,0,85,0c0.5,0.4,0.9,0.9,1.4,1.2c32.4,17.6,64.9,35.2,97.4,52.7c2.5,1.3,5.6,2,8.4,2C918,56,1231.7,56,1545.5,56
			c1.8,0,3.5,0,5.5,0c0-19.1,0-37.5,0-56c0.3,1.3,1,2.7,1,4c0.1,32,0,64,0,96c-88.2,0-176.4,0-264.6,0c0,19.3,0,38,0,57
			C1375.8,157,1463.9,157,1552,157z M263.8,435.8c-69.4,0-138.5,0-207.4,0c0-46.2,0-92,0-138c54.7,0,108.9,0,163.2,0
			c0-19.1,0-37.8,0-57c-54.7,0-109.1,0-163.8,0c0-13.8,0-27.1,0-40.4c-17.4,0-34.5,0-51.4,0c0,97.7,0,195.1,0,292.4
			c86.6,0,172.9,0,259.4,0C263.8,473.9,263.8,455.3,263.8,435.8z M1064,490.8c0-15.4-0.1-30.2,0.1-45.1c0-3,0.9-6.3,2.3-8.9
			c7.1-13,14.4-25.9,21.7-38.8c8.7-15.5,17.5-31,26.4-46.9c1.2,2,2.2,3.5,3,5.1c24.2,42.9,48.4,85.9,72.4,128.8c1.7,3,3.5,4.1,7,4
			c18.2-0.2,36.3-0.1,54.5-0.1c1.6,0,3.2-0.1,5.6-0.3c-1.4-2.7-2.4-4.7-3.6-6.7c-34.6-61.5-69.2-123-103.9-184.5
			c-1.6-2.8-2.3-4.9-0.5-8.1c27.4-48.7,54.6-97.6,81.8-146.3c7.3-13.1,14.7-26.1,22-39.2c0.8-1.4,1.4-2.9,2.3-4.7
			c-1.5-0.1-2.4-0.2-3.4-0.2c-19.2,0-38.3,0.1-57.5-0.1c-3.3,0-4.6,1.5-6,4c-59.8,106.4-119.6,212.8-179.4,319.2
			c-1.2,2.2-1.9,4.9-1.9,7.4c-0.2,18.7-0.1,37.3-0.1,56c0,1.8,0,3.5,0,5.3C1026.3,490.8,1044.9,490.8,1064,490.8z M829.1,411.5
			c18.2,10.2,35.7,20.1,53.4,29.8c1.2,0.6,3.4,0.2,4.8-0.5c22.6-12.4,45-25.3,67.8-37.2c9.3-4.9,12.9-11.6,12.9-21.5
			c-0.1-56.7-0.2-113.3,0.1-170c0-11.2-3.3-18.8-14.1-24.3c-25.4-13.1-50.2-27.5-75.2-41.4c-26.6-14.8-53.2-29.6-79.9-44.3
			c-4.5-2.5-9.6-4.5-14.8-2.2c-7.4,3.2-14.7,6.8-21.9,10.6c-9.8,5.2-19.4,10.8-29.8,16.6c2.7,1.6,4.8,2.8,6.8,3.9
			c18.7,10.3,37.4,20.5,56.1,30.8c17.9,9.9,35.8,19.8,53.7,29.7c20.2,11.2,40.4,22.4,60.7,33.5c3.1,1.7,4.3,3.6,4.3,7.3
			c-0.2,42-0.2,84,0.1,126c0,5.2-1.8,7.6-6,9.9C881.9,382.4,855.9,396.8,829.1,411.5z M746.3,180.8c-17.8-9.9-34.9-19.3-52-28.8
			c-2.6-1.4-4.6-1.6-7.5,0.1c-22.8,12.8-45.7,25.3-68.6,37.9c-4.8,2.6-8.3,6.2-9.1,11.7c-0.6,4.3-0.9,8.6-0.9,12.9
			c-0.1,56.2-0.1,112.3,0,168.5c0,7.7,1.8,14.5,9.3,18.6c15.7,8.7,31.4,17.4,47.2,26.1c38.1,21.1,76.3,42.2,114.4,63.3
			c5.8,3.2,11.7,3.5,17.6,0.3c11.2-6.1,22.4-12.5,33.6-18.7c4.1-2.3,8.3-4.5,12.9-7c-1.4-1-2.1-1.6-3-2.1
			c-19.6-10.9-39.3-21.8-58.9-32.8c-17.4-9.7-34.7-19.5-52.1-29.1c-21.1-11.7-42.2-23.3-63.3-34.9c-2.6-1.4-3.6-3.1-3.6-6.2
			c0.1-43,0.1-86,0-129c0-3.1,1.1-4.7,3.7-6.1c13-7.1,25.9-14.2,38.9-21.4C718.3,196.4,732.1,188.7,746.3,180.8z M1065.1,538.2
			c-0.1,0.2-0.2,0.5-0.4,0.7c11,6,22.1,12,33.1,18c20.2,10.9,40.3,22,60.6,32.7c4.5,2.4,9.7,5.1,14.5,5.1
			c124.2,0.3,248.3,0.2,372.5,0.2c1.8,0,3.5,0,5.2,0c0-19.4,0-38,0-56.8C1388.7,538.2,1226.9,538.2,1065.1,538.2z M607.8,103.7
			c-2.4,0-4.1,0-5.7,0c-16.7,0-33.3,0.1-50-0.1c-4-0.1-5.7,1.2-7.2,4.9c-31.8,79.1-63.8,158.2-95.7,237.2
			c-9.2,22.9-18.4,45.8-27.4,68.7c-0.8,2-0.9,4.9-0.1,6.9c9,22.9,18.2,45.7,27.3,68.5c0.5,1.1,1.2,2.1,2.3,4.1
			C503.7,363.5,555.6,233.9,607.8,103.7z M4.2,158.6c86.8,0,173.2,0,259.5,0c0-19,0-37.6,0-56.4c-86.6,0-173,0-259.5,0
			C4.2,121.1,4.2,139.7,4.2,158.6z M294.1,103.7c34.9,87.1,69.6,173.4,104.2,259.8c0.7-0.4,1.2-0.5,1.3-0.8
			c9.4-23.3,18.9-46.6,28.1-70.1c0.9-2.3,0.7-5.6-0.2-7.9c-10.4-26.3-21-52.5-31.5-78.7c-13.1-32.7-26.2-65.4-39.4-98.1
			c-0.7-1.7-2.6-4-4-4C333.5,103.6,314.3,103.7,294.1,103.7z M1007.3,341.7c0.7-0.5,1.2-0.7,1.4-1c6.5-11.6,12.9-23.2,19.4-34.8
			c11.2-20,22.5-40,33.6-60.1c1.3-2.3,2.3-5.2,2.3-7.8c0.1-43.8,0.1-87.6,0.1-131.4c0-1.8,0-3.5,0-5.2c-19.4,0-38.1,0-56.7,0
			C1007.3,181.6,1007.3,261.4,1007.3,341.7z"/>
		<path class="st1" d="M0,538c324,0,647.9,0,971.9,0.1c4.2,0,8.8,1.3,12.5,3.2c20.3,10.7,40.5,21.7,60.6,32.6
			c12.4,6.7,24.7,13.4,36.9,21c-360.7,0-721.3,0-1082,0C0,576,0,557,0,538z"/>
		<path class="st1" d="M1551,0c0,18.5,0,36.9,0,56c-2,0-3.8,0-5.5,0c-313.7,0-627.5,0-941.2-0.1c-2.8,0-5.9-0.7-8.4-2
			c-32.5-17.5-64.9-35.1-97.4-52.7c-0.5-0.3-0.9-0.8-1.4-1.2C848.3,0,1199.7,0,1551,0z"/>
		<path class="st1" d="M1552,491c-88.1,0-176.2,0-264.7,0c0-97.7,0-195,0-292.7c18.8,0,37.5,0,56.6,0c0,13.4,0,26.7,0,40.5
			c54.7,0,109.1,0,163.8,0c0,19.2,0,38,0,57c-54.4,0-108.7,0-163.3,0c0,46.1,0,91.8,0,138.2c69.1,0,138.4,0,207.6,0
			C1552,453,1552,472,1552,491z"/>
		<path class="st1" d="M412,0c12.7,7,25.4,14.1,38.2,21c20.6,11.2,41.2,22.4,61.9,33.6c0.4,0.2,0.7,0.6,1.6,1.4C342,56,171,56,0,56
			C0,37.3,0,18.7,0,0C137.3,0,274.7,0,412,0z"/>
		<path class="st1" d="M1552,157c-88.1,0-176.2,0-264.6,0c0-19,0-37.7,0-57c88.2,0,176.4,0,264.6,0C1552,119,1552,138,1552,157z"/>
		<path class="st1" d="M263.8,435.8c0,19.5,0,38.1,0,56.9c-86.5,0-172.7,0-259.4,0c0-97.3,0-194.7,0-292.4c17,0,34,0,51.4,0
			c0,13.3,0,26.6,0,40.4c54.7,0,109.1,0,163.8,0c0,19.3,0,38,0,57c-54.3,0-108.6,0-163.2,0c0,46.1,0,91.8,0,138
			C125.3,435.8,194.3,435.8,263.8,435.8z"/>
		<path class="st1" d="M1064,490.8c-19.1,0-37.7,0-57,0c0-1.8,0-3.6,0-5.3c0-18.7-0.1-37.3,0.1-56c0-2.5,0.7-5.2,1.9-7.4
			c59.7-106.4,119.6-212.8,179.4-319.2c1.4-2.5,2.7-4,6-4c19.2,0.2,38.3,0.1,57.5,0.1c0.9,0,1.9,0.1,3.4,0.2
			c-0.9,1.9-1.6,3.3-2.3,4.7c-7.3,13.1-14.7,26.1-22,39.2c-27.3,48.8-54.5,97.6-81.8,146.3c-1.8,3.2-1,5.4,0.5,8.1
			c34.7,61.5,69.3,123,103.9,184.5c1.1,2,2.1,4,3.6,6.7c-2.4,0.1-4,0.3-5.6,0.3c-18.2,0-36.3-0.1-54.5,0.1c-3.4,0-5.3-1-7-4
			c-24.1-43-48.3-85.9-72.4-128.8c-0.9-1.6-1.9-3.1-3-5.1c-9,15.9-17.7,31.4-26.4,46.9c-7.3,12.9-14.7,25.7-21.7,38.8
			c-1.4,2.6-2.2,5.9-2.3,8.9C1063.9,460.5,1064,475.4,1064,490.8z"/>
		<path class="st1" d="M829.1,411.5c26.8-14.7,52.8-29.2,78.9-43.4c4.2-2.3,6-4.7,6-9.9c-0.3-42-0.2-84-0.1-126
			c0-3.7-1.2-5.6-4.3-7.3c-20.3-11.1-40.4-22.3-60.7-33.5c-17.9-9.9-35.8-19.8-53.7-29.7c-18.7-10.3-37.4-20.5-56.1-30.8
			c-2.1-1.1-4.1-2.4-6.8-3.9c10.4-5.8,20-11.4,29.8-16.6c7.2-3.8,14.5-7.4,21.9-10.6c5.2-2.3,10.3-0.2,14.8,2.2
			c26.7,14.6,53.3,29.5,79.9,44.3c25,13.9,49.8,28.3,75.2,41.4c10.7,5.5,14.1,13.1,14.1,24.3c-0.2,56.7-0.2,113.3-0.1,170
			c0,9.9-3.6,16.6-12.9,21.5c-22.9,11.9-45.2,24.8-67.8,37.2c-1.3,0.7-3.6,1.1-4.8,0.5C864.8,431.6,847.3,421.7,829.1,411.5z"/>
		<path class="st1" d="M746.3,180.8c-14.2,7.9-27.9,15.6-41.7,23.2c-12.9,7.2-25.9,14.3-38.9,21.4c-2.6,1.4-3.7,3-3.7,6.1
			c0.1,43,0.1,86,0,129c0,3.1,0.9,4.8,3.6,6.2c21.1,11.6,42.2,23.2,63.3,34.9c17.4,9.7,34.7,19.4,52.1,29.1
			c19.6,10.9,39.3,21.8,58.9,32.8c0.9,0.5,1.6,1.1,3,2.1c-4.6,2.5-8.8,4.7-12.9,7c-11.2,6.2-22.3,12.6-33.6,18.7
			c-5.8,3.2-11.7,2.9-17.6-0.3c-38.1-21.1-76.3-42.2-114.4-63.3c-15.7-8.7-31.4-17.4-47.2-26.1c-7.4-4.1-9.3-10.9-9.3-18.6
			c0-56.2,0-112.3,0-168.5c0-4.3,0.3-8.6,0.9-12.9c0.8-5.5,4.3-9.1,9.1-11.7c22.9-12.5,45.8-25,68.6-37.9c2.9-1.6,4.9-1.5,7.5-0.1
			C711.4,161.5,728.4,170.9,746.3,180.8z"/>
		<path class="st1" d="M1065.1,538.2c161.8,0,323.6,0,485.6,0c0,18.8,0,37.4,0,56.8c-1.7,0-3.4,0-5.2,0
			c-124.2,0-248.3,0.1-372.5-0.2c-4.9,0-10-2.7-14.5-5.1c-20.3-10.7-40.4-21.8-60.6-32.7c-11.1-6-22.1-12-33.1-18
			C1064.9,538.7,1065,538.5,1065.1,538.2z"/>
		<path class="st1" d="M607.8,103.7C555.6,233.9,503.7,363.5,451.3,494c-1.1-2-1.9-3-2.3-4.1c-9.2-22.8-18.4-45.6-27.3-68.5
			c-0.8-2-0.7-4.9,0.1-6.9c9-23,18.2-45.9,27.4-68.7c31.9-79.1,63.9-158.1,95.7-237.2c1.5-3.7,3.2-5,7.2-4.9
			c16.7,0.2,33.3,0.1,50,0.1C603.8,103.7,605.4,103.7,607.8,103.7z"/>
		<path class="st1" d="M4.2,158.6c0-18.9,0-37.5,0-56.4c86.6,0,172.9,0,259.5,0c0,18.8,0,37.4,0,56.4
			C177.4,158.6,91,158.6,4.2,158.6z"/>
		<path class="st1" d="M294.1,103.7c20.2,0,39.3-0.1,58.5,0.2c1.4,0,3.3,2.4,4,4c13.2,32.7,26.3,65.4,39.4,98.1
			c10.5,26.2,21.1,52.4,31.5,78.7c0.9,2.3,1.1,5.6,0.2,7.9c-9.2,23.4-18.7,46.7-28.1,70.1c-0.1,0.2-0.5,0.4-1.3,0.8
			C363.7,277.1,329.1,190.8,294.1,103.7z"/>
		<path class="st1" d="M1007.3,341.7c0-80.2,0-160,0-240.3c18.6,0,37.3,0,56.7,0c0,1.7,0,3.4,0,5.2c0,43.8,0,87.6-0.1,131.4
			c0,2.6-1,5.5-2.3,7.8c-11.1,20.1-22.4,40.1-33.6,60.1c-6.5,11.6-12.9,23.2-19.4,34.8C1008.5,341,1008,341.2,1007.3,341.7z"/>
	</g>
</g>
</svg>
