<svg width="103" height="103" viewBox="0 0 103 103" fill="none" xmlns="http://www.w3.org/2000/svg">
<g clip-path="url(#clip0)">
<path d="M99.111 42.5457L57.0982 42.5437C55.243 42.5437 53.7393 44.0473 53.7393 45.9025V59.3237C53.7393 61.1785 55.243 62.6824 57.098 62.6824H80.757C78.1664 69.4058 73.331 75.0364 67.1618 78.614L77.25 96.0776C93.4327 86.7184 103 70.297 103 51.9143C103 49.2968 102.807 47.4257 102.421 45.3189C102.128 43.7181 100.738 42.5457 99.111 42.5457Z" fill="#167EE6"/>
<path d="M51.5 82.8478C39.9217 82.8478 29.814 76.5218 24.3854 67.1606L6.92249 77.2261C15.8093 92.6282 32.457 103 51.5 103C60.8418 103 69.6565 100.485 77.25 96.1014V96.0775L67.1618 78.6138C62.5473 81.2902 57.2074 82.8478 51.5 82.8478Z" fill="#12B347"/>
<path d="M77.25 96.1014V96.0775L67.1618 78.6138C62.5474 81.29 57.2078 82.8478 51.5 82.8478V103C60.8418 103 69.657 100.485 77.25 96.1014Z" fill="#0F993E"/>
<path d="M20.1522 51.5C20.1522 45.7929 21.7097 40.4536 24.3855 35.8394L6.92253 25.7739C2.51505 33.3434 0 42.1342 0 51.5C0 60.8657 2.51505 69.6566 6.92253 77.226L24.3855 67.1606C21.7097 62.5463 20.1522 57.207 20.1522 51.5Z" fill="#FFD500"/>
<path d="M51.5 20.1522C59.0501 20.1522 65.9853 22.835 71.4023 27.2976C72.7387 28.3984 74.681 28.319 75.9051 27.0948L85.4145 17.5854C86.8034 16.1966 86.7044 13.9231 85.2208 12.636C76.1449 4.76234 64.3361 0 51.5 0C32.457 0 15.8093 10.3718 6.92249 25.7739L24.3854 35.8394C29.814 26.4782 39.9217 20.1522 51.5 20.1522Z" fill="#FF4B26"/>
<path d="M71.4023 27.2976C72.7387 28.3984 74.6812 28.319 75.9052 27.0948L85.4146 17.5854C86.8033 16.1965 86.7043 13.9231 85.2208 12.636C76.145 4.76214 64.3362 0 51.5 0V20.1522C59.05 20.1522 65.9854 22.835 71.4023 27.2976Z" fill="#D93F21"/>
</g>
<defs>
<clipPath id="clip0">
<rect width="103" height="103" fill="white"/>
</clipPath>
</defs>
</svg>
