<?xml version="1.0" encoding="utf-8"?>
<!-- Generator: Adobe Illustrator 25.2.1, SVG Export Plug-In . SVG Version: 6.00 Build 0)  -->
<svg version="1.1" id="Layer_1" xmlns="http://www.w3.org/2000/svg" xmlns:xlink="http://www.w3.org/1999/xlink" x="0px" y="0px"
	 viewBox="0 0 320.3 368.2" style="enable-background:new 0 0 320.3 368.2;" xml:space="preserve">
<style type="text/css">
	.st0{fill:#9D3147;}
	.st1{opacity:0.8;fill:#FFFFFF;enable-background:new    ;}
	.st2{fill:#FFFFFF;}
	.st3{opacity:0.3;fill:#FAFAFA;enable-background:new    ;}
	.st4{opacity:0.7;fill:#FAFAFA;enable-background:new    ;}
	.st5{fill:#B55B52;}
	.st6{fill:#263238;}
	.st7{fill:#A02724;}
	.st8{opacity:0.2;enable-background:new    ;}
	.st9{opacity:0.3;enable-background:new    ;}
</style>
<path class="st0" d="M311.3,230.9l-1.5,26.5l1.1,0.1l1.5-26.5L311.3,230.9z"/>
<path class="st0" d="M312.5,208.4l-0.8,13.7l1.1,0.1l0.7-13.7L312.5,208.4z"/>
<path class="st0" d="M288.8,308h-132c-2,0-4-0.4-5.8-1.1s-3.5-1.9-4.9-3.4c-1.4-1.4-2.4-3.2-3.1-5c-0.7-1.9-1-3.9-0.8-5.9
	l15.2-277.1c0.3-4.2,2.1-8,5.1-10.9s7-4.5,11.2-4.5h132c2,0,4,0.4,5.8,1.2c1.8,0.8,3.5,1.9,4.9,3.4c1.4,1.4,2.4,3.2,3.1,5
	c0.7,1.9,1,3.9,0.8,5.9l-15.2,277.1c-0.3,4.1-2.1,8-5.1,10.9C296.9,306.3,293,307.9,288.8,308L288.8,308z"/>
<path class="st1" d="M280.8,308h-124c-2,0-4-0.4-5.8-1.1s-3.5-1.9-4.9-3.4c-1.4-1.4-2.4-3.2-3.1-5c-0.7-1.9-1-3.9-0.8-5.9
	l15.2-277.1c0.3-4.2,2.1-8,5.1-10.9s7-4.5,11.2-4.5h124c2,0,4,0.4,5.8,1.2c1.8,0.8,3.5,1.9,4.9,3.4c1.4,1.4,2.4,3.2,3.1,5
	c0.7,1.9,1,3.9,0.8,5.9l-15.2,277.1c-0.3,4.1-2.1,8-5.1,10.9C289,306.3,285,307.9,280.8,308L280.8,308z"/>
<path class="st2" d="M219.4,50.2h-35.6c-0.8,0-1.7-0.2-2.4-0.5c-0.8-0.3-1.5-0.8-2-1.4s-1-1.3-1.3-2.1c-0.3-0.8-0.4-1.6-0.3-2.5l0,0
	c0.1-1.7,0.9-3.4,2.2-4.6c1.3-1.2,3-1.9,4.7-1.9h35.6c0.8,0,1.7,0.2,2.4,0.5c0.8,0.3,1.5,0.8,2,1.4c0.6,0.6,1,1.3,1.3,2.1
	c0.3,0.8,0.4,1.6,0.3,2.5l0,0c-0.1,1.8-0.9,3.4-2.2,4.6C222.8,49.5,221.1,50.2,219.4,50.2z"/>
<path class="st0" d="M226.2,43.7c-0.2,3.2-1.6,6.1-3.9,8.3c-2.3,2.2-5.3,3.4-8.5,3.4c-1.5,0-3-0.3-4.4-0.9c-1.4-0.6-2.7-1.5-3.7-2.6
	c-1-1.1-1.8-2.4-2.4-3.8c-0.5-1.4-0.7-2.9-0.6-4.5c0.2-3.2,1.6-6.1,3.9-8.3c2.3-2.2,5.3-3.4,8.5-3.4c1.5,0,3,0.3,4.4,0.9
	c1.4,0.6,2.7,1.5,3.7,2.6c1,1.1,1.8,2.4,2.4,3.8S226.3,42.2,226.2,43.7L226.2,43.7z"/>
<path class="st2" d="M217.1,91.9h-35.6c-0.8,0-1.7-0.2-2.4-0.5c-0.8-0.3-1.5-0.8-2-1.4s-1-1.3-1.3-2.1c-0.3-0.8-0.4-1.6-0.3-2.5
	c0.1-1.7,0.9-3.4,2.2-4.6c1.3-1.2,3-1.9,4.7-1.9h35.6c0.8,0,1.7,0.2,2.4,0.5c0.8,0.3,1.5,0.8,2,1.4c0.6,0.6,1,1.3,1.3,2.1
	c0.3,0.8,0.4,1.6,0.3,2.5l0,0c-0.1,1.8-0.9,3.4-2.2,4.6C220.5,91.2,218.8,91.9,217.1,91.9L217.1,91.9z"/>
<path class="st0" d="M204.5,93.6c4.8-4.6,5.1-12.1,0.7-16.6c-4.4-4.5-11.8-4.4-16.6,0.2c-4.8,4.6-5.1,12.1-0.7,16.6
	C192.3,98.3,199.7,98.2,204.5,93.6z"/>
<path class="st3" d="M204.5,93.6c4.8-4.6,5.1-12.1,0.7-16.6c-4.4-4.5-11.8-4.4-16.6,0.2c-4.8,4.6-5.1,12.1-0.7,16.6
	C192.3,98.3,199.7,98.2,204.5,93.6z"/>
<path class="st2" d="M176.9,175.3h35.6c1.8,0,3.4-0.7,4.7-1.9s2-2.8,2.2-4.6c0.1-0.8-0.1-1.7-0.3-2.5s-0.7-1.5-1.3-2.1
	c-0.6-0.6-1.3-1.1-2.1-1.4c-0.8-0.3-1.6-0.5-2.5-0.5h-35.6c-1.8,0-3.4,0.7-4.7,1.9c-1.3,1.2-2,2.8-2.2,4.6l0,0
	c-0.1,0.8,0.1,1.7,0.4,2.5c0.3,0.8,0.7,1.5,1.3,2.1c0.6,0.6,1.3,1.1,2,1.4C175.2,175.1,176.1,175.3,176.9,175.3L176.9,175.3z"/>
<path class="st0" d="M190.4,176.9c4.8-4.6,5.1-12.1,0.7-16.6c-4.4-4.5-11.8-4.4-16.6,0.2c-4.8,4.6-5.1,12.1-0.7,16.6
	C178.2,181.7,185.7,181.6,190.4,176.9z"/>
<path class="st4" d="M190.4,176.9c4.8-4.6,5.1-12.1,0.7-16.6c-4.4-4.5-11.8-4.4-16.6,0.2c-4.8,4.6-5.1,12.1-0.7,16.6
	C178.2,181.7,185.7,181.6,190.4,176.9z"/>
<path class="st2" d="M210.2,216.9h-35.6c-0.8,0-1.7-0.2-2.4-0.5c-0.8-0.3-1.5-0.8-2-1.4c-0.6-0.6-1-1.3-1.3-2.1
	c-0.3-0.8-0.4-1.6-0.4-2.5c0.1-1.8,0.9-3.4,2.2-4.6c1.3-1.2,3-1.9,4.7-1.9h35.6c0.8,0,1.7,0.2,2.4,0.5c0.8,0.3,1.5,0.8,2.1,1.4
	c0.6,0.6,1,1.3,1.3,2.1c0.3,0.8,0.4,1.6,0.3,2.5l0,0c-0.1,1.8-0.9,3.4-2.2,4.6C213.7,216.2,212,216.9,210.2,216.9L210.2,216.9z"/>
<path class="st0" d="M217.1,210.4c-0.2,3.2-1.6,6.1-3.9,8.3c-2.3,2.2-5.3,3.4-8.5,3.4c-1.5,0-3-0.3-4.4-0.9
	c-1.4-0.6-2.7-1.5-3.7-2.6c-1-1.1-1.8-2.4-2.4-3.8c-0.5-1.4-0.7-2.9-0.6-4.5c0.2-3.2,1.6-6.1,3.9-8.3c2.3-2.2,5.3-3.4,8.5-3.4
	c1.5,0,3,0.3,4.4,0.9c1.4,0.6,2.7,1.5,3.7,2.6c1,1.1,1.8,2.4,2.4,3.8C217,207.4,217.2,208.9,217.1,210.4L217.1,210.4z"/>
<path class="st2" d="M179.2,133.6h35.6c1.8,0,3.4-0.7,4.7-1.9c1.3-1.2,2-2.8,2.2-4.6l0,0c0.1-0.8-0.1-1.7-0.3-2.5
	c-0.3-0.8-0.7-1.5-1.3-2.1c-0.6-0.6-1.3-1.1-2.1-1.4s-1.6-0.5-2.5-0.5h-35.6c-1.8,0-3.4,0.7-4.7,1.9c-1.3,1.2-2,2.8-2.2,4.6l0,0
	c-0.1,0.8,0.1,1.7,0.3,2.5c0.3,0.8,0.7,1.5,1.3,2.1c0.6,0.6,1.3,1.1,2,1.4C177.5,133.4,178.3,133.6,179.2,133.6L179.2,133.6z"/>
<path class="st0" d="M173.1,127.1c-0.1,1.5,0.1,3,0.6,4.5c0.5,1.4,1.3,2.7,2.4,3.8c1,1.1,2.3,2,3.7,2.6c1.4,0.6,2.9,0.9,4.4,0.9
	c3.2,0,6.2-1.3,8.5-3.4c2.3-2.2,3.7-5.1,3.9-8.3c0.1-1.5-0.1-3-0.6-4.5c-0.5-1.4-1.3-2.7-2.4-3.8c-1-1.1-2.3-2-3.7-2.6
	c-1.4-0.6-2.9-0.9-4.4-0.9c-3.2,0-6.2,1.3-8.5,3.4C174.7,120.9,173.3,123.9,173.1,127.1L173.1,127.1z"/>
<path class="st4" d="M173.1,127.1c-0.1,1.5,0.1,3,0.6,4.5c0.5,1.4,1.3,2.7,2.4,3.8c1,1.1,2.3,2,3.7,2.6c1.4,0.6,2.9,0.9,4.4,0.9
	c3.2,0,6.2-1.3,8.5-3.4c2.3-2.2,3.7-5.1,3.9-8.3c0.1-1.5-0.1-3-0.6-4.5c-0.5-1.4-1.3-2.7-2.4-3.8c-1-1.1-2.3-2-3.7-2.6
	c-1.4-0.6-2.9-0.9-4.4-0.9c-3.2,0-6.2,1.3-8.5,3.4C174.7,120.9,173.3,123.9,173.1,127.1L173.1,127.1z"/>
<path class="st2" d="M297.4,41.8h-52.8c-0.3,0-0.7-0.1-1-0.2c-0.3-0.1-0.6-0.3-0.8-0.6c-0.2-0.2-0.4-0.5-0.5-0.9
	c-0.1-0.3-0.2-0.7-0.1-1c0-0.7,0.4-1.4,0.9-1.8c0.5-0.5,1.2-0.8,1.9-0.8h52.8c0.3,0,0.7,0.1,1,0.2c0.3,0.1,0.6,0.3,0.8,0.6
	c0.2,0.2,0.4,0.5,0.5,0.8c0.1,0.3,0.2,0.7,0.1,1l0,0c0,0.7-0.4,1.4-0.9,1.8C298.8,41.5,298.1,41.8,297.4,41.8L297.4,41.8z"/>
<path class="st2" d="M279.8,50.9h-35.7c-0.3,0-0.7-0.1-1-0.2c-0.3-0.1-0.6-0.3-0.8-0.6c-0.2-0.2-0.4-0.5-0.5-0.9
	c-0.1-0.3-0.2-0.7-0.1-1c0-0.7,0.4-1.4,0.9-1.8c0.5-0.5,1.2-0.8,1.9-0.8h35.7c0.3,0,0.7,0.1,1,0.2c0.3,0.1,0.6,0.3,0.8,0.6
	c0.2,0.2,0.4,0.5,0.5,0.8c0.1,0.3,0.2,0.7,0.1,1c0,0.7-0.4,1.4-0.9,1.8C281.2,50.6,280.5,50.9,279.8,50.9L279.8,50.9z"/>
<path class="st2" d="M281.6,208.5h-46.2c-0.3,0-0.7-0.1-1-0.2c-0.3-0.1-0.6-0.3-0.8-0.6c-0.2-0.2-0.4-0.5-0.5-0.9
	c-0.1-0.3-0.2-0.7-0.1-1c0-0.7,0.4-1.4,0.9-1.8c0.5-0.5,1.2-0.8,1.9-0.8h46.1c0.3,0,0.7,0.1,1,0.2c0.3,0.1,0.6,0.3,0.8,0.6
	c0.2,0.2,0.4,0.5,0.5,0.8c0.1,0.3,0.2,0.7,0.1,1c0,0.7-0.3,1.3-0.8,1.8C282.9,208.2,282.3,208.4,281.6,208.5L281.6,208.5z"/>
<path class="st2" d="M257.7,217.6H235c-0.3,0-0.7-0.1-1-0.2c-0.3-0.1-0.6-0.3-0.8-0.6c-0.2-0.2-0.4-0.5-0.5-0.8
	c-0.1-0.3-0.2-0.7-0.1-1l0,0c0-0.7,0.4-1.4,0.9-1.8s1.2-0.8,1.9-0.8h22.8c0.3,0,0.7,0.1,1,0.2c0.3,0.1,0.6,0.3,0.8,0.6
	c0.2,0.2,0.4,0.5,0.5,0.8c0.1,0.3,0.2,0.7,0.1,1l0,0c0,0.7-0.4,1.4-0.9,1.8S258.5,217.6,257.7,217.6L257.7,217.6z"/>
<path class="st2" d="M294.9,87.4h-52.8c-0.7,0-1.4,0.3-1.9,0.8c-0.5,0.5-0.8,1.1-0.9,1.8l0,0c0,0.3,0,0.7,0.1,1
	c0.1,0.3,0.3,0.6,0.5,0.8c0.2,0.2,0.5,0.4,0.8,0.6c0.3,0.1,0.6,0.2,1,0.2h52.8c0.7,0,1.4-0.3,1.9-0.8c0.5-0.5,0.8-1.1,0.9-1.8l0,0
	c0-0.3,0-0.7-0.1-1c-0.1-0.3-0.3-0.6-0.5-0.8c-0.2-0.2-0.5-0.4-0.8-0.6C295.6,87.4,295.2,87.4,294.9,87.4L294.9,87.4z"/>
<path class="st2" d="M278.3,78.2h-35.7c-0.7,0-1.4,0.3-1.9,0.8c-0.5,0.5-0.8,1.1-0.9,1.8l0,0c0,0.3,0,0.7,0.1,1
	c0.1,0.3,0.3,0.6,0.5,0.9c0.2,0.2,0.5,0.4,0.8,0.6c0.3,0.1,0.6,0.2,1,0.2H278c0.7,0,1.4-0.3,1.9-0.8c0.5-0.5,0.8-1.1,0.9-1.8
	c0-0.3,0-0.7-0.1-1c-0.1-0.3-0.3-0.6-0.5-0.9c-0.2-0.2-0.5-0.4-0.8-0.6C279,78.3,278.6,78.2,278.3,78.2z"/>
<path class="st2" d="M267.1,125.1h-27c-0.3,0-0.7-0.1-1-0.2c-0.3-0.1-0.6-0.3-0.8-0.6c-0.2-0.2-0.4-0.5-0.5-0.9
	c-0.1-0.3-0.2-0.7-0.1-1l0,0c0-0.7,0.4-1.4,0.9-1.8c0.5-0.5,1.2-0.8,1.9-0.8h27c0.3,0,0.7,0.1,1,0.2c0.3,0.1,0.6,0.3,0.8,0.6
	c0.2,0.2,0.4,0.5,0.5,0.9c0.1,0.3,0.2,0.7,0.1,1l0,0c0,0.7-0.4,1.4-0.9,1.9C268.5,124.9,267.8,125.1,267.1,125.1L267.1,125.1z"/>
<path class="st2" d="M292.8,125.1h-15.9c-0.3,0-0.7-0.1-1-0.2c-0.3-0.1-0.6-0.3-0.8-0.6c-0.2-0.2-0.4-0.5-0.5-0.9
	c-0.1-0.3-0.2-0.7-0.1-1l0,0c0-0.7,0.4-1.4,0.9-1.8s1.2-0.8,1.9-0.8h16c0.3,0,0.7,0.1,1,0.2c0.3,0.1,0.6,0.3,0.8,0.6
	c0.2,0.2,0.4,0.5,0.5,0.8c0.1,0.3,0.2,0.7,0.1,1l0,0c0,0.7-0.4,1.4-0.9,1.8C294.2,124.8,293.5,125.1,292.8,125.1L292.8,125.1z"/>
<path class="st2" d="M275.2,134.2h-35.7c-0.3,0-0.7-0.1-1-0.2s-0.6-0.3-0.8-0.6s-0.4-0.5-0.5-0.8c-0.1-0.3-0.2-0.7-0.1-1
	c0-0.7,0.4-1.4,0.9-1.8c0.5-0.5,1.2-0.8,1.9-0.8h35.8c0.3,0,0.7,0.1,1,0.2c0.3,0.1,0.6,0.3,0.8,0.6c0.2,0.2,0.4,0.5,0.5,0.8
	c0.1,0.3,0.2,0.7,0.1,1c0,0.7-0.4,1.4-0.9,1.8C276.6,134,275.9,134.2,275.2,134.2L275.2,134.2z"/>
<path class="st2" d="M230.5,254.1h-60.8c-0.5,0-0.9-0.1-1.4-0.3c-0.4-0.2-0.8-0.5-1.2-0.8c-0.3-0.3-0.6-0.8-0.7-1.2
	c-0.2-0.4-0.2-0.9-0.2-1.4l0,0c0.1-1,0.5-1.9,1.2-2.6s1.7-1.1,2.6-1.1h60.8c0.5,0,0.9,0.1,1.4,0.3c0.4,0.2,0.8,0.5,1.2,0.8
	c0.3,0.3,0.6,0.8,0.7,1.2c0.2,0.4,0.2,0.9,0.2,1.4c-0.1,1-0.5,1.9-1.2,2.6C232.4,253.7,231.5,254.1,230.5,254.1L230.5,254.1z"/>
<path class="st2" d="M284.7,254.1h-37.3c-0.5,0-0.9-0.1-1.4-0.3c-0.4-0.2-0.8-0.5-1.2-0.8c-0.3-0.3-0.6-0.8-0.7-1.2
	c-0.2-0.4-0.2-0.9-0.2-1.4l0,0c0.1-1,0.5-1.9,1.2-2.6c0.7-0.7,1.7-1.1,2.6-1.1h37.3c0.5,0,0.9,0.1,1.4,0.3c0.4,0.2,0.8,0.5,1.2,0.8
	c0.3,0.3,0.6,0.8,0.7,1.2c0.2,0.4,0.2,0.9,0.2,1.4l0,0c-0.1,1-0.5,1.9-1.2,2.6C286.6,253.7,285.7,254.1,284.7,254.1L284.7,254.1z"/>
<path class="st2" d="M215.3,266.9H169c-0.5,0-0.9-0.1-1.4-0.3c-0.4-0.2-0.8-0.5-1.2-0.8c-0.3-0.3-0.6-0.8-0.7-1.2
	c-0.2-0.4-0.2-0.9-0.2-1.4l0,0c0.1-1,0.5-1.9,1.2-2.6c0.7-0.7,1.7-1.1,2.6-1.1h46.3c0.5,0,0.9,0.1,1.4,0.3c0.4,0.2,0.8,0.5,1.2,0.8
	c0.3,0.3,0.6,0.8,0.7,1.2c0.2,0.4,0.2,0.9,0.2,1.4l0,0c-0.1,1-0.5,1.9-1.2,2.6C217.2,266.5,216.3,266.8,215.3,266.9z"/>
<path class="st2" d="M265.5,279.7h-97.2c-0.5,0-0.9-0.1-1.4-0.3c-0.4-0.2-0.8-0.5-1.2-0.8c-0.3-0.3-0.6-0.8-0.7-1.2
	c-0.2-0.4-0.2-0.9-0.2-1.4l0,0c0.1-1,0.5-1.9,1.2-2.6c0.7-0.7,1.7-1.1,2.6-1.1h97.2c0.5,0,0.9,0.1,1.4,0.3c0.4,0.2,0.8,0.5,1.2,0.8
	c0.3,0.3,0.6,0.8,0.7,1.2c0.2,0.4,0.2,0.9,0.2,1.4c-0.1,1-0.5,1.9-1.2,2.6C267.5,279.3,266.5,279.6,265.5,279.7z"/>
<path class="st2" d="M253.2,170.7h-15.6c-0.7,0-1.4,0.3-1.9,0.8s-0.8,1.1-0.9,1.8l0,0c0,0.3,0,0.7,0.1,1c0.1,0.3,0.3,0.6,0.5,0.8
	c0.2,0.2,0.5,0.4,0.8,0.6c0.3,0.1,0.6,0.2,1,0.2h15.6c0.7,0,1.4-0.3,1.9-0.8c0.5-0.5,0.8-1.1,0.9-1.8c0-0.3,0-0.7-0.1-1
	c-0.1-0.3-0.3-0.6-0.5-0.8c-0.2-0.2-0.5-0.4-0.8-0.6C253.8,170.8,253.5,170.7,253.2,170.7L253.2,170.7z"/>
<path class="st2" d="M281,170.7h-18.1c-0.7,0-1.4,0.3-1.9,0.8s-0.8,1.1-0.9,1.8l0,0c0,0.3,0,0.7,0.1,1c0.1,0.3,0.3,0.6,0.5,0.8
	c0.2,0.2,0.5,0.4,0.8,0.6c0.3,0.1,0.6,0.2,1,0.2h18.1c0.7,0,1.4-0.3,1.9-0.8c0.5-0.5,0.8-1.1,0.9-1.8c0-0.3,0-0.7-0.1-1
	c-0.1-0.3-0.3-0.6-0.5-0.9c-0.2-0.2-0.5-0.4-0.8-0.6C281.7,170.8,281.4,170.7,281,170.7L281,170.7z"/>
<path class="st2" d="M273.7,161.6H238c-0.7,0-1.4,0.3-1.9,0.8c-0.5,0.5-0.8,1.1-0.9,1.8c0,0.3,0,0.7,0.1,1c0.1,0.3,0.3,0.6,0.5,0.9
	c0.2,0.2,0.5,0.4,0.8,0.6c0.3,0.1,0.6,0.2,1,0.2h35.7c0.7,0,1.4-0.3,1.9-0.8s0.8-1.1,0.9-1.8l0,0c0-0.3,0-0.7-0.1-1
	s-0.3-0.6-0.5-0.8c-0.2-0.2-0.5-0.4-0.8-0.6C274.4,161.6,274.1,161.6,273.7,161.6L273.7,161.6z"/>
<path class="st5" d="M76.2,94.7c-3.7,3.1-7.5,6.4-11,9.7c-1.8,1.7-3.5,3.4-5.1,5.1c-1.5,1.7-2.9,3.4-4.2,5.3l-0.2,0.3l-0.1,0.2
	c-0.1,0.1-0.2,0.3-0.2,0.5c-0.2,0.3-0.3,0.8-0.5,1.3c-0.3,1-0.5,2.1-0.7,3.1c-0.4,2.4-0.6,4.7-0.7,7.1c-0.2,4.9-0.2,9.9-0.1,14.9
	l-5.3,0.8c-1.3-5.1-2.2-10.3-2.7-15.5c-0.3-2.7-0.3-5.5-0.2-8.2c0.1-1.5,0.3-2.9,0.6-4.4c0.2-0.8,0.4-1.6,0.6-2.4
	c0.2-0.4,0.3-0.8,0.5-1.3l0.3-0.7c0.1-0.2,0.2-0.3,0.3-0.5c1.4-2.5,3-4.8,4.8-7c1.7-2.1,3.5-4.1,5.4-6c3.7-3.8,7.7-7.3,11.8-10.6
	L76.2,94.7z"/>
<path class="st0" d="M74.3,81.2c-5.8,3.4-14.5,12.2-14.5,12.2l10.7,12.8c0,0,15.2-9.1,17-14.1C90.6,83.7,79.7,78,74.3,81.2z"/>
<path class="st5" d="M53.2,140.3l1.3,7.6l-7.1-1c0,0-1.5-5.2,2.3-7L53.2,140.3z"/>
<path class="st5" d="M51.9,152.5l-6.4-2l1.9-3.7l7.1,1L51.9,152.5z"/>
<path class="st6" d="M117.1,54.3c0,0.8,0.4,1.4,0.9,1.4c0.5,0,0.9-0.6,0.9-1.4c0-0.8-0.4-1.4-0.9-1.4
	C117.5,52.9,117.1,53.5,117.1,54.3z"/>
<path class="st6" d="M117.8,52.9l1.9-0.5C119.7,52.4,118.7,53.9,117.8,52.9z"/>
<path class="st7" d="M117.8,55.1c0.7,1.8,1.7,3.5,2.9,5c-0.4,0.3-0.9,0.5-1.3,0.5c-0.5,0.1-1,0.1-1.4-0.1L117.8,55.1z"/>
<path class="st6" d="M118.1,49.2c-0.1,0-0.2,0-0.2,0c-0.6-0.2-1.1-0.3-1.7-0.2c-0.6,0.1-1.1,0.3-1.6,0.6c0,0-0.1,0.1-0.2,0.1
	c-0.1,0-0.1,0-0.2,0c-0.1,0-0.1,0-0.2-0.1c-0.1,0-0.1-0.1-0.1-0.1c-0.1-0.1-0.1-0.2-0.1-0.3c0-0.1,0.1-0.2,0.2-0.3
	c0.6-0.4,1.3-0.7,2-0.8c0.7-0.1,1.5,0,2.2,0.2c0.1,0,0.2,0.1,0.3,0.2c0.1,0.1,0.1,0.2,0,0.3c0,0.1-0.1,0.1-0.1,0.2
	C118.2,49.1,118.2,49.1,118.1,49.2L118.1,49.2z"/>
<path class="st5" d="M94.2,62.6c0.5,5.8-1.4,15.4-5.8,18.6c0,0,3.3,6.1,13.9,7.6c11.7,1.6,6.2-5,6.2-5c-6.2-2.4-5.6-7-4-11.3
	L94.2,62.6z"/>
<path class="st5" d="M114.9,88.2c5.6,1.5,11.4,3,17.1,4.3c2.9,0.6,5.8,1.1,8.6,1.7c2.9,0.6,5.8,1,8.6,1.4l1.1,0.1l0.7,0.1
	c0.5,0,1.1,0,1.7,0c1.3-0.1,2.6-0.3,3.9-0.5c2.8-0.6,5.5-1.3,8.3-2.2c5.6-1.7,11.2-3.8,16.7-6l2.5,4.7c-5.2,3.4-10.6,6.4-16.3,8.9
	c-2.9,1.3-5.9,2.5-9,3.4c-1.6,0.5-3.3,0.9-5,1.1c-0.9,0.1-1.9,0.2-2.8,0.2h-1.5l-1.1-0.1c-6.2-0.4-12.4-1.3-18.5-2.5
	c-6.1-1.1-12.1-2.6-18-4.4L114.9,88.2z"/>
<path class="st5" d="M180.2,89.1l1.6-5.5l6,2.3c0,0-1.4,8.3-6.5,6L180.2,89.1z"/>
<path class="st5" d="M185.3,79.9l6.1,0.7l-3.6,5.2l-6-2.3L185.3,79.9z"/>
<path class="st5" d="M76.9,357.9l9.6,0.7l2.9-22.2l-9.6-0.7L76.9,357.9z"/>
<path class="st5" d="M5.8,315l6.6,7.3l18.3-12.7l-6.6-7.3L5.8,315z"/>
<path class="st0" d="M17.2,326.4c-0.1,0-0.2,0-0.3,0c-1.1-0.4-2-2.6-2.3-3.8c0,0,0-0.1,0-0.1c0,0,0-0.1,0.1-0.1c0,0,0.1,0,0.1,0
	c0,0,0.1,0,0.1,0c0.3,0.2,3.5,1.9,3.6,3.1c0,0.1,0,0.3-0.1,0.4c-0.1,0.1-0.1,0.2-0.3,0.3C17.8,326.3,17.5,326.4,17.2,326.4
	L17.2,326.4z M15.1,322.9c0.6,1.7,1.2,2.8,1.9,3c0.1,0,0.3,0,0.4,0c0.1,0,0.3-0.1,0.4-0.2c0,0,0.1-0.1,0.1-0.1c0-0.1,0-0.1,0-0.2
	C17.9,324.7,16.3,323.6,15.1,322.9z"/>
<path class="st0" d="M17.6,323.4c-1,0-2-0.3-3-0.7c0,0-0.1-0.1-0.1-0.1c0,0,0-0.1,0-0.1c0,0,0-0.1,0-0.1s0.1-0.1,0.1-0.1
	c0.1-0.1,2.5-1.4,3.8-0.9c0.2,0.1,0.3,0.1,0.5,0.3c0.1,0.1,0.2,0.3,0.3,0.4c0.1,0.2,0.1,0.3,0.1,0.5c0,0.2-0.1,0.3-0.3,0.5
	C18.6,323.3,18.1,323.4,17.6,323.4L17.6,323.4z M15.2,322.4c1.1,0.5,3,0.7,3.5,0.2c0.1-0.1,0.2-0.2,0-0.5c0-0.1-0.1-0.2-0.2-0.3
	c-0.1-0.1-0.2-0.1-0.3-0.2C17.2,321.7,16.1,321.9,15.2,322.4L15.2,322.4z"/>
<path class="st6" d="M15.3,321.2l-5.4-9.6c-0.1-0.2-0.2-0.3-0.4-0.4c-0.2-0.1-0.4-0.1-0.5,0l-8,3.1c-0.2,0.1-0.4,0.2-0.5,0.4
	c-0.1,0.2-0.3,0.4-0.3,0.6C0,315.5,0,315.7,0,315.9c0,0.2,0.1,0.4,0.2,0.6c1.9,3.3,3,4.8,5.4,9c1.5,2.6,3.7,8.3,5.4,12
	c1.7,3.7,5.4,2.3,5,0.6c-1.3-5-1.5-10.1-0.5-15.2C15.7,322.3,15.6,321.7,15.3,321.2L15.3,321.2z"/>
<path class="st0" d="M90.8,358.9c-1,0-2-0.1-3-0.3c0,0-0.1,0-0.1-0.1s-0.1-0.1-0.1-0.1c0,0,0-0.1,0-0.1c0,0,0.1-0.1,0.1-0.1
	c0.4-0.2,4.4-2.3,5.5-1.5c0.1,0.1,0.2,0.1,0.3,0.3c0.1,0.1,0.1,0.2,0.1,0.4c0,0.2,0,0.4-0.1,0.6c-0.1,0.2-0.2,0.4-0.4,0.5
	C92.4,358.8,91.6,359,90.8,358.9L90.8,358.9z M88.5,358.3c2.1,0.3,3.7,0.3,4.3-0.3c0.1-0.1,0.2-0.2,0.2-0.3c0-0.1,0.1-0.3,0.1-0.4
	c0,0,0-0.1,0-0.1c0,0-0.1-0.1-0.1-0.1C92.4,356.7,90.1,357.5,88.5,358.3L88.5,358.3z"/>
<path class="st0" d="M87.8,358.6c0,0-0.1,0-0.1,0c0,0-0.1-0.1-0.1-0.1c0,0,0-0.1,0-0.1c0-0.2,0.5-4.1,2.6-4.1h0.2
	c0.6,0.1,0.8,0.4,0.8,0.6C91.4,356,89.1,358.1,87.8,358.6C87.8,358.6,87.8,358.6,87.8,358.6L87.8,358.6z M90.2,354.7
	c-1.4,0-1.9,2.3-2.1,3.3c1.2-0.7,2.8-2.4,2.7-3c0,0,0-0.2-0.4-0.2L90.2,354.7z"/>
<path class="st6" d="M87.2,357.3H76.4c-0.2,0-0.4,0.1-0.5,0.2c-0.1,0.1-0.2,0.3-0.3,0.5l-1.5,8.6c0,0.2,0,0.4,0.1,0.6
	c0.1,0.2,0.2,0.4,0.3,0.6c0.1,0.2,0.3,0.3,0.5,0.4c0.2,0.1,0.4,0.1,0.6,0.1c3.8-0.1,5.6-0.3,10.4-0.3c2.9,0,9,0.3,13.1,0.3
	c4,0,4.4-4,2.7-4.4c-7.5-1.6-10.4-3.9-12.9-6C88.4,357.5,87.8,357.3,87.2,357.3L87.2,357.3z"/>
<path class="st8" d="M89.5,336.5l-1.6,12.3l-9.5-1.6l1.5-11.4L89.5,336.5z"/>
<path class="st8" d="M24.1,302.3l6.6,7.3l-7.6,5.2l-6.8-7.1L24.1,302.3z"/>
<path class="st0" d="M72.1,139.3l39.1,5.2c15.1-54.8,10.7-56.3,10.7-56.3c-2.9-1.4-5.9-2.6-9-3.6l-0.5-0.2c-2.5-0.8-3.1-0.9-6.4-1.6
	c-5.8-1-11.1-1.8-17.8-2.4c-0.4,0-0.8-0.1-1.3-0.1c-1.2-0.1-2.4-0.1-3.5-0.2c-0.8,0-1.5,0-2.3,0h-3.8c-0.8,0-1.5,0.2-2.2,0.5
	c-0.7,0.3-1.3,0.8-1.8,1.3c-0.5,0.6-0.9,1.2-1.1,2c-0.2,0.7-0.3,1.5-0.2,2.2C75.3,115.1,74.3,124.6,72.1,139.3z"/>
<path class="st8" d="M112.3,100.7c0.3,2.5,6.1,7.2,8.2,5.9c0.6-3.1,1-5.6,1.3-7.7C118.8,98.7,113,95.4,112.3,100.7z"/>
<path class="st0" d="M105.9,87.8c-0.3-9,21.6,0.9,26.6,3.2l-5.6,15.1c0,0-7.3-0.2-12-2.9c-2.6-1.6-4.9-3.9-6.4-6.5
	C106.9,93.9,106,90.9,105.9,87.8L105.9,87.8z"/>
<path class="st5" d="M90.9,51.8c0.7,9.5,0.8,13.6,5.8,18.5c7.4,7.4,19.1,4.8,21.2-4.7c1.9-8.5,0.4-22.7-9-26.6
	c-2-0.9-4.3-1.3-6.5-1.1c-2.2,0.2-4.3,1-6.1,2.3c-1.8,1.3-3.3,3-4.2,5C91.1,47.4,90.7,49.6,90.9,51.8L90.9,51.8z"/>
<path class="st6" d="M91.7,41.7c-9.6-2.4-9.9,5.6-9.7,9.9c0.2,4.2-6.8,6.3-6.8,11.6c0,6.9,5.2,11-7.5,13.1c-10.7,1.8-14,15.2,1.8,23
	c17.6,8.7,44.1-3.5,40.9-15.1c-4.9-17.9,3.9-17.9,2.9-27.9c-0.7-7.3,6.2-7.6,3.7-13.7C113.8,34.7,90.9,27.7,91.7,41.7z"/>
<path class="st6" d="M80.6,55.2c-1.3-6.9-0.6-11.5,2.1-13.7c3.5-2.8,8.9-0.4,9.2-0.3l-0.5,1c0,0-5-2.3-8,0.1
	c-2.4,1.9-2.9,6.1-1.7,12.6L80.6,55.2z"/>
<path class="st6" d="M69.8,74.3c-2.5-0.1-4.9-0.6-7.2-1.5l0.4-1c0.1,0,7.7,3,11.2,0.1c1.7-1.4,2.2-4.1,1.5-7.9l1.1-0.2
	c0.8,4.3,0.2,7.3-1.8,9C73.4,73.9,71.6,74.4,69.8,74.3L69.8,74.3z"/>
<path class="st5" d="M110.8,55.6c-0.1,1.8,0.4,3.5,1.3,5c1.3,2.1,3.1,1.7,3.6-0.1c0.6-1.8,0.5-4.7-1.3-6.2
	C112.7,52.8,111,53.7,110.8,55.6z"/>
<path class="st6" d="M100.9,143.2c0,0-15.2,64.2-22.3,101c-7.5,38.9-51.8,70.6-51.8,70.6l-9.7-10c0,0,28.5-25,35.9-61.3
	c14.9-73.7,4.8-88.5,19.1-104.2L100.9,143.2z"/>
<path class="st0" d="M27.6,316.2l-12.1-12.5l3.4-3.7L33,312.5L27.6,316.2z"/>
<path class="st8" d="M92.8,157.1c-11.8,10.2-10.5,46.6-9.3,63c4.9-23.3,10.9-49.2,14.4-64.3C96.6,154.9,95,155.2,92.8,157.1z"/>
<path class="st6" d="M110.6,144.6c0,0,6.8,76.2,3.1,105.2C109.8,280,90,345.8,90,345.8L76.2,344c0,0,11.3-65.1,13.3-95.1
	c2.2-32.7-7.5-108.1-7.5-108.1L110.6,144.6z"/>
<path class="st0" d="M93.1,346.5L73.2,344l0.3-5.9l21.5,2.1L93.1,346.5z"/>
<path class="st0" d="M71.7,137l-2.1,3.2c-0.2,0.3,0.1,0.6,0.6,0.6l41,5.6c0.3,0,0.7-0.1,0.7-0.3l0.7-3.4c0.1-0.2-0.2-0.5-0.6-0.5
	l-39.6-5.3c-0.1,0-0.2,0-0.3,0C71.9,136.8,71.8,136.9,71.7,137L71.7,137z"/>
<path class="st9" d="M71.7,137l-2.1,3.2c-0.2,0.3,0.1,0.6,0.6,0.6l41,5.6c0.3,0,0.7-0.1,0.7-0.3l0.7-3.4c0.1-0.2-0.2-0.5-0.6-0.5
	l-39.6-5.3c-0.1,0-0.2,0-0.3,0C71.9,136.8,71.8,136.9,71.7,137L71.7,137z"/>
<path class="st6" d="M76.6,142.1l-1.1-0.1c-0.2,0-0.4-0.2-0.3-0.3l1-4.4c0-0.1,0.2-0.2,0.4-0.2l1.1,0.1c0.2,0,0.4,0.2,0.3,0.3
	l-1,4.4C77,142,76.8,142.1,76.6,142.1z"/>
<path class="st6" d="M103.4,145.7l-1.1-0.1c-0.2,0-0.4-0.2-0.3-0.3l1-4.4c0-0.1,0.2-0.2,0.4-0.2l1.1,0.1c0.2,0,0.4,0.2,0.3,0.3
	l-1,4.4C103.8,145.7,103.6,145.8,103.4,145.7z"/>
</svg>
